<!DOCTYPE svg PUBLIC "-//W3C//DTD SVG 1.1//EN" "http://www.w3.org/Graphics/SVG/1.1/DTD/svg11.dtd">
<!-- Uploaded to: SVG Repo, www.svgrepo.com, Transformed by: SVG Repo Mixer Tools -->
<svg fill="#e64900" version="1.1" id="Capa_1" xmlns="http://www.w3.org/2000/svg" xmlns:xlink="http://www.w3.org/1999/xlink" width="64px" height="64px" viewBox="0 0 31.381 31.381" xml:space="preserve">
<g id="SVGRepo_bgCarrier" stroke-width="0"/>
<g id="SVGRepo_tracerCarrier" stroke-linecap="round" stroke-linejoin="round"/>
<g id="SVGRepo_iconCarrier"> <g> <g> <circle cx="5.2" cy="25.988" r="3.638"/> <circle cx="15.767" cy="25.988" r="3.638"/> <circle cx="26.158" cy="25.988" r="3.638"/> <rect x="24.253" y="18.292" width="0.769" height="1.57"/> <path d="M0,1.754v18.107h22.064v-1.57v-0.514v-0.695h-0.193l-0.287-5.589h-5.256V9.987h5.179h0.776h1.266l1.165,1.352l1.128-1.352 l2.475,0.325l0.16,5.629h-1.05l-0.057,1.141h-0.16v0.695v0.514v1.57h4.171V1.754H0z M24.661,9.527 c-1.688,0-3.058-1.369-3.058-3.057s1.369-3.057,3.058-3.057s3.057,1.369,3.057,3.057S26.348,9.527,24.661,9.527z"/> </g> </g> </g>
</svg>